<?xml version="1.0" encoding="UTF-8"?>
<svg id="Layer_2" data-name="Layer 2" xmlns="http://www.w3.org/2000/svg" viewBox="0 0 1793 483.45">
  <defs>
    <style>
      .cls-1 {
        fill: #fff;
        stroke-width: 0px;
      }
    </style>
  </defs>
  <g id="Layer_1-2" data-name="Layer 1">
    <path id="flexi_desk_logo_flexi" data-name="flexi desk logo flexi" class="cls-1" d="M1765.71,0H238.26c-10.39,0-19.87,5.9-24.46,15.23L2.83,444.17c-8.91,18.11,4.27,39.28,24.46,39.28h1527.44c10.39,0,19.87-5.9,24.46-15.23l210.97-428.94c8.91-18.11-4.27-39.28-24.46-39.28ZM556.61,164.01c-32.54.7-64.99-.06-98.79.45-.82,16.38-.37,32.14-.27,49.2h87.58v41.65h-87.37c-.71,17.06-.27,33.23-.35,49.37-.08,16.22-.02,32.44-.02,49.05h-51.94c-1.94-7.54-2.55-220.52-.53-235.29,50.61-1.09,100.77-1.13,151.68-.14v45.7ZM751.64,353.74h-150.88V118.58h51.61c.56,20.79.18,41.59.25,62.38.07,20.97.02,41.93.02,62.9v64.25h99.01v45.63ZM963.81,164.1h-103.48v49.4h87.55v42.45h-87.57v51.6h103.39v45.91h-157.32c-1.94-7.23-2.39-222.7-.35-235h157.79v45.63ZM1226.74,353.63c-4.69.69-7.9,1.52-11.13,1.57-11.99.17-23.98-.14-35.96.19-7.96.22-12.99-3.28-16.95-9.94-12.06-20.32-24.44-40.45-36.74-60.63-2.04-3.35-4.29-6.57-7.19-10.98-2.7,3.88-4.9,6.69-6.74,9.73-12.24,20.22-24.65,40.34-36.45,60.81-4.51,7.82-10.01,11.62-19.26,11.06-10.62-.64-21.31-.06-31.97-.19-3.93-.05-7.85-.62-11.19-.9-.7-.98-.96-1.2-1.03-1.48-.09-.31-.14-.74.01-.98,24.54-38.4,49.09-76.79,74-115.74-24.83-38.74-49.69-77.52-75.93-118.45,8.04,0,13.56,0,19.09,0,9.33-.02,18.68.38,27.98-.2,8.37-.52,13.64,2.68,17.82,9.87,11.54,19.86,23.57,39.42,35.46,59.08,2.2,3.64,4.63,7.15,7.82,12.05,3.06-4.44,5.56-7.75,7.72-11.27,12.03-19.57,24.25-39.02,35.82-58.86,4.56-7.82,10.05-11.5,19.31-10.89,10.95.72,21.98.16,32.97.24,3.56.03,7.11.33,12.63.61-25.95,40.09-50.98,78.78-76.33,117.95,25.63,39.44,50.61,77.88,76.27,117.37ZM1329.12,353.46c-17.2,2.89-34.02,2.64-50.64.84-2.15-7.86-2.73-222.11-.64-236,16.46-1.38,33.22-.23,49.69-.66,3.73,11.71,4.99,213,1.58,235.82Z"/>
  </g>
</svg>