<?xml version="1.0" encoding="UTF-8"?>
<svg id="Layer_2" data-name="Layer 2" xmlns="http://www.w3.org/2000/svg" viewBox="0 0 289.01 260.62">
  <defs>
    <style>
      .cls-1 {
        fill: #fff;
        stroke-width: 0px;
      }
    </style>
  </defs>
  <g id="Layer_1-2" data-name="Layer 1">
    <path id="flexi_desk_logo_down" data-name="flexi desk logo down" class="cls-1" d="M143.31.04c36.65,0,73.29,0,109.94.01,3.33,0,6.69-.07,9.98.35,19.71,2.53,30.83,21.44,23.52,39.99-1.34,3.39-3.15,6.6-4.96,9.77-35.8,62.73-71.61,125.44-107.48,188.13-2.31,4.03-4.72,8.1-7.69,11.64-12.42,14.81-34.32,14.12-45.75-1.43-3.14-4.27-5.7-8.99-8.34-13.62C77.85,174.2,43.21,113.49,8.6,52.77c-2.3-4.04-4.59-8.15-6.26-12.47C-5.61,19.84,7.51.19,29.37.09c37.98-.18,75.96-.05,113.94-.05ZM144.34,232.5c39.17-68.32,77.31-134.98,116.3-203.47h-78.93c-25.3,0-50.6-.13-75.9.04-25.35.17-50.74-.74-77.37.63,38.91,68.08,76.93,134.62,115.9,202.8Z"/>
  </g>
</svg>