<?xml version="1.0" encoding="UTF-8"?>
<svg id="Layer_2" data-name="Layer 2" xmlns="http://www.w3.org/2000/svg" viewBox="0 0 1736.1 576.96">
  <defs>
    <style>
      .cls-1 {
        fill: #fff;
        stroke-width: 0px;
      }
    </style>
  </defs>
  <g id="Layer_1-2" data-name="Layer 1">
    <g id="flexi_desk_logo_desk" data-name="flexi desk logo desk">
      <path class="cls-1" d="M1669.2,52l-230.91,472.96H66.91L297.82,52h1371.38M1708.81,0H282.36c-10.42,0-19.92,5.94-24.49,15.3L2.8,537.75c-8.84,18.11,4.34,39.21,24.49,39.21h1426.45c10.42,0,19.92-5.94,24.49-15.3L1733.31,39.21c8.84-18.11-4.34-39.21-24.49-39.21h0Z"/>
      <path class="cls-1" d="M538.64,389.37v-196.08c3.26-.44,6.44-1.24,9.63-1.24,23.98.02,47.99-.55,71.93.49,44.33,1.92,75.1,30.24,81.96,74.31,3.26,20.97,2.7,41.75-3.39,62.27-10.71,36.1-37.89,59.11-75.35,61.02-26.91,1.37-53.94.28-80.92.25-.94,0-1.87-.47-3.85-1.01ZM581.16,230.02c-2.03,18.47-1.21,113.51,1,120.7,11.19,0,22.53.58,33.78-.13,19.24-1.22,33.61-13.67,38.55-32.3,4.98-18.77,4.67-37.53-.09-56.27-3.75-14.73-12.87-24.47-27.34-29.18-14.89-4.85-30.07-4.2-45.89-2.83Z"/>
      <path class="cls-1" d="M1183.51,307.49c-5.91,6.41-11.52,11.67-16.03,17.75-2.17,2.92-3.04,7.36-3.15,11.15-.41,14.31-.27,28.63-.33,42.94-.01,3.27,0,6.55,0,10.56h-41.36c-2.32-65.41-2.93-130.47-.67-196.36h41.91v76.34c.68.32,1.36.65,2.03.97,2.65-2.66,5.53-5.14,7.93-8.01,16.85-20.2,33.86-40.27,50.23-60.85,6.02-7.56,12.79-10.7,22.3-10.16,10.56.6,21.18.14,34.45.14-12.3,16.16-24,29.53-35.2,43.28-11.34,13.93-22.81,27.75-34.89,42.44,23.21,37.1,46.38,74.13,70.62,112.87-16.17,0-30.32.14-44.46-.08-4.71-.08-6.29-4.41-8.3-7.81-12.7-21.48-25.35-43-38.07-64.47-1.99-3.36-4.28-6.55-7-10.7Z"/>
      <path class="cls-1" d="M1073.73,249.76c-15.58.1-30.7.38-46.01-.27-1.53-3.48-2.71-6.55-4.19-9.46-6.99-13.68-25.62-18.45-38.65-10.23-11.16,7.04-14.61,28.11,1.61,35.17,7.27,3.16,14.99,5.36,22.64,7.55,6.38,1.82,13.05,2.65,19.42,4.52,6.03,1.77,12.01,3.95,17.71,6.59,43.45,20.15,34.4,73.01,9.38,92.04-28.58,21.74-75.29,22.69-103.69.76-11.75-9.07-19.37-20.95-23.04-35.24-1.04-4.04-.86-8.38-1.31-13.35h45.27c1.03,2.85,2.19,5.87,3.22,8.94,7.53,22.41,37.46,21.97,49.07,10.37,9.2-9.2,7.82-24.81-3.49-31.97-4.65-2.94-10.31-4.47-15.7-6.02-10.54-3.03-21.36-5.15-31.76-8.56-7.18-2.35-13.99-5.98-20.73-9.5-12.15-6.33-18.04-16.93-20.5-30.15-5.78-31.11,8.18-55.7,38.13-65.62,27.44-9.09,53.79-7.35,78.17,9.39,15.25,10.47,23.07,25.15,24.44,45.03Z"/>
      <path class="cls-1" d="M881.4,193.42v35.53c-14.55.09-28.73.22-42.9.27-14.27.05-28.54.01-44.21.01-.33,14.56-.23,28.32-.06,43.07h73.48c.66,11.4.31,21.9.23,33.88-24.81.84-49.26-.1-74.4.56v45.85c29.3.5,58.4-.11,88.15.34v36.09h-130.91c-1.48-65.08-1.94-129.85-.24-194.48,7.28-2.37,112.09-3.26,130.84-1.12Z"/>
    </g>
  </g>
</svg>