<?xml version="1.0" encoding="UTF-8"?>
<svg id="Layer_2" data-name="Layer 2" xmlns="http://www.w3.org/2000/svg" viewBox="0 0 289.41 261.51">
  <defs>
    <style>
      .cls-1 {
        fill: #fff;
        stroke-width: 0px;
      }
    </style>
  </defs>
  <g id="Layer_1-2" data-name="Layer 1">
    <path id="flexi_desk_logo_up" data-name="flexi desk logo up" class="cls-1" d="M144.92,261.5c-35.29,0-70.59.04-105.88-.05-4.64-.01-9.34-.24-13.9-1.05-20.11-3.55-30.41-22.69-22.44-41.48,1.29-3.05,2.94-5.96,4.59-8.85C43.76,146.26,80.33,82.5,116.66,18.59,123.29,6.92,132.01-.43,146.01.02c8.86.28,16.16,3.77,21.5,10.82,2.8,3.7,5.23,7.71,7.53,11.74,35.35,61.78,70.68,123.58,105.94,185.41,2.46,4.32,4.85,8.76,6.53,13.42,6.27,17.44-3.66,35.07-21.85,38.82-4.52.93-9.24,1.21-13.87,1.22-35.63.1-71.25.05-106.88.05Z"/>
  </g>
</svg>